<?xml version="1.0" encoding="UTF-8"?>
<svg  viewBox="0 0 72 72" version="1.1" xmlns="http://www.w3.org/2000/svg" xmlns:xlink="http://www.w3.org/1999/xlink">
    <!-- Generator: Sketch 49.2 (51160) - http://www.bohemiancoding.com/sketch -->
    <title>Airbnb</title>
    <desc>Created with Sketch.</desc>
    <defs></defs>
    <g id="Page-1" stroke="none" stroke-width="1" fill="none" fill-rule="evenodd">
        <g id="Social-Icons---Circle" transform="translate(-488.000000, -491.000000)">
            <g id="Airbnb" transform="translate(488.000000, 491.000000)">
                <path d="M36,72 L36,72 C55.882251,72 72,55.882251 72,36 L72,36 C72,16.117749 55.882251,-3.65231026e-15 36,0 L36,0 C16.117749,3.65231026e-15 -2.4348735e-15,16.117749 0,36 L0,36 C2.4348735e-15,55.882251 16.117749,72 36,72 Z" id="Oval" fill="#FF7977"></path>
                <path d="M57.9984933,49.0690268 C57.9834128,47.6891811 57.6842494,46.2803196 57.141127,44.8737352 C56.8723682,44.1753211 56.634925,43.6255978 56.0972811,42.42603 C56.0815726,42.390982 56.0815726,42.390982 56.0658773,42.3559617 C55.9911217,42.1891281 55.9911217,42.1891281 55.9168112,42.0228634 C52.6177146,34.6993953 49.147803,27.4390663 45.5081884,20.2418604 C45.4161049,20.0609866 45.3427434,19.9162605 45.1805317,19.5957777 C45.1772107,19.5892164 45.1772107,19.5892164 45.1738894,19.5826545 C44.5784591,18.4062608 44.3040852,17.874629 43.9470263,17.2208033 C43.2930408,16.0321491 42.6265738,15.1031959 41.821475,14.3431887 C40.404885,12.9677267 38.4875832,12.1282116 36.4956644,12.0019101 L35.628836,12 C33.5365031,12.104 31.5555307,12.9770533 30.0985358,14.423412 C29.335486,15.1594424 28.6955437,16.0610993 28.0569147,17.2203421 C27.698433,17.8745154 27.4035937,18.4449698 26.841452,19.5569404 C26.8082539,19.6226137 26.8082539,19.6226137 26.7750882,19.6882285 C26.646665,19.9422768 26.5907944,20.0526842 26.5184273,20.1952694 C24.0964582,24.9815977 21.7326294,29.8343428 19.4254269,34.7541864 C17.7380662,38.3676785 16.5460639,40.9698377 15.3995664,43.5694303 C14.6918045,45.1815155 14.291038,46.3873006 14.1157253,47.6677192 C13.7445698,50.1378619 14.2747211,52.7437844 15.5834222,54.8861266 C16.7103871,56.7453181 18.4007228,58.237185 20.3680376,59.1005695 C21.900907,59.7754789 23.5904976,60.0805883 25.2539436,59.980597 C27.3558863,59.8670059 29.4666813,59.1289311 31.4224427,57.8945624 C33.2120619,56.7760467 34.8210193,55.3272812 36.7083711,53.2648259 L35.2980166,53.2632768 C37.0272434,55.1612586 38.5281207,56.537787 40.1751084,57.6322361 C42.1092114,58.9281303 44.1834936,59.7410893 46.2760724,59.9424195 C48.7088742,60.2012481 51.2209234,59.5812616 53.253764,58.208149 C55.0433638,57.0077894 56.4567183,55.2382895 57.2509814,53.206346 C57.766651,51.8915933 58.0228052,50.4742125 57.9984069,49.0629023 L57.9984933,49.0690268 L57.9984933,49.0690268 Z M53.0464737,51.0612906 C52.6263069,52.5381456 51.6122904,53.8325904 50.2960592,54.5741179 C49.1360867,55.2348536 47.7350849,55.4732222 46.3977428,55.2456841 C44.8049236,54.9931563 43.2386879,54.1700689 41.6090465,52.8329874 C40.6515331,52.0493921 39.7338698,51.1344006 38.6257264,49.8960605 L38.668601,51.1275573 C40.4937087,48.7767038 41.8094654,46.7844755 42.8263125,44.7028582 C43.9654311,42.3629192 44.6078881,40.1779263 44.6756652,38.0081301 C44.720959,36.3785204 44.4009373,34.8083643 43.706363,33.4601954 C42.7685833,31.6026795 41.0837163,30.1404578 39.0997969,29.4294121 C37.3037705,28.7760143 35.301582,28.7134265 33.4547102,29.2495998 C31.6788959,29.7613089 30.0915721,30.8466659 29.0066931,32.3173885 C28.0619293,33.5860471 27.4949924,35.1627309 27.3650774,36.8080792 C27.191799,38.8634208 27.6179537,41.0018866 28.5346674,43.2657274 C29.6195344,45.8988296 31.1978707,48.415203 33.343606,51.112665 L33.3621636,49.8921523 C32.5782456,50.8182087 31.7056672,51.6993716 30.7524386,52.5327297 C29.1276211,53.9329885 27.5872284,54.8226594 26.0041242,55.1713808 C24.6121219,55.489527 23.1461355,55.3199716 21.9267031,54.6917056 C20.4736706,53.9542397 19.3535931,52.5595054 18.9332588,50.9648714 C18.6170904,49.8122417 18.6706681,48.5346604 19.0696925,47.3365468 C19.304452,46.6353526 19.5412063,46.0699654 20.0988686,44.8260354 C20.1222915,44.7737891 20.1222915,44.7737891 20.145751,44.7214504 C20.2475361,44.4943374 20.3132702,44.3469948 20.3806686,44.1943995 C23.6099215,37.023507 27.0290297,29.8668912 30.6316195,22.7318268 C30.7081643,22.5806323 30.7692608,22.4596389 30.9067322,22.1871575 C30.91367,22.173406 30.91367,22.173406 30.9206068,22.1596564 C31.5640896,20.8842025 31.8628265,20.3036867 32.243319,19.6052366 C32.7535528,18.6808974 33.2030394,18.080257 33.7451139,17.6607567 C34.3949004,17.1431679 35.2102847,16.8658221 36.013801,16.8843796 C36.8731159,16.8746358 37.7131882,17.1864046 38.3630852,17.7425035 C38.943193,18.2331199 39.3869848,18.880224 39.9800997,20.007736 C40.8328207,21.6389132 41.5749043,23.1107331 42.9342664,25.845259 C43.0556706,26.0894981 43.0556706,26.0894981 43.1770909,26.333797 C43.1904992,26.360774 43.1904992,26.360774 43.203908,26.3877515 C46.2500934,32.5299861 49.1615554,38.6964674 51.9360833,44.8860766 C51.973764,44.9725819 52.0030512,45.0392591 52.0737852,45.1998154 C52.0997918,45.2587918 52.0997918,45.2587918 52.125728,45.3175833 C52.6472908,46.499894 52.8611659,47.0369117 53.0464652,47.702678 C53.3514656,48.8088857 53.3537211,49.9893161 53.0469916,51.059477 L53.0464737,51.0612906 L53.0464737,51.0612906 Z M36.7466109,47.5898481 C36.346307,47.1099192 36.0225882,46.6630318 35.397043,45.7526239 C35.3558908,45.6927231 35.3558908,45.6927231 35.3146326,45.6326608 C35.2905803,45.5976511 35.2905803,45.5976511 35.2664855,45.5625924 C34.4099594,44.2830397 33.7155054,43.0571612 33.172416,41.8320989 C32.6553501,40.6510262 32.330028,39.5844492 32.2001875,38.5525597 C32.0896683,37.5971123 32.1508092,36.774909 32.4113997,36.0885431 C32.6584809,35.4068198 33.1281974,34.818151 33.7263914,34.429972 C35.2221542,33.4469047 37.3555598,33.5734055 38.67216,34.7318065 C39.3013685,35.2777197 39.7145968,36.1150138 39.8188933,37.0297115 C39.9501937,38.1992085 39.7311407,39.4742006 39.2044215,40.9069883 C38.395355,43.069888 37.1395083,45.1454723 35.2531466,47.6232131 L36.0131757,48.2060643 L36.7466109,47.5898481 L36.7466109,47.5898481 Z" fill="#FFFFFF" fill-rule="nonzero"></path>
            </g>
        </g>
    </g>
</svg>