<svg viewBox="0 0 32 32" xmlns="http://www.w3.org/2000/svg" aria-hidden="true" role="presentation" focusable="false" style="display: block; height: 24px; width: 24px; fill: currentcolor;"><path d="M31 6v2h-2v22h-6V14H9v16H3V8H1V6zM16.437 29.978l-.236.014c-.06.006-.13.008-.201.008l-.105-.002-.105-.005C13.134 29.882 11 27.67 11 24.997c0-2.429 1.376-4.83 4.045-7.219l.301-.265.654-.564.654.564C19.52 19.988 21 22.478 21 24.997a5 5 0 0 1-4.563 4.981zM27 8H5v20h2V14a2 2 0 0 1 1.697-1.977l.154-.018L9 12h14a2 2 0 0 1 1.995 1.85L25 14v14h2zM16 26a1 1 0 0 0-.117 1.993l.117.004.094-.001A1 1 0 0 0 16 26zm0-6.383l-.15.142C13.929 21.616 13 23.366 13 24.997c0 .348.06.683.172.995A3.003 3.003 0 0 1 18.83 26c.11-.313.171-.65.171-1.002 0-1.56-.85-3.229-2.605-4.996l-.246-.242zM31 2v2H1V2z"></path></svg>